<?xml version="1.0" encoding="UTF-8"?>
<!-- Created with Inkscape (http://www.inkscape.org/) -->
<svg width="240" height="240" version="1.1" viewBox="0 0 24 24" xmlns="http://www.w3.org/2000/svg">
 <path d="m1 2v10 6h2v-1.5307c0.30454 0.27263 0.63822 0.5171 1 0.72598 1.855 1.071 4.145 1.071 6 0 0.36178-0.20887 0.69546-0.45335 1-0.72598v5.5307h2v-10c0-1.8153 1.2114-3.3935 2.9648-3.8633 0.34436-0.092272 0.6919-0.13544 1.0352-0.13594v-7.813e-4l7.81e-4 7.813e-4c1.4042-0.0017646 2.7348 0.73614 3.4641 1.9992 0.36143 0.62601 0.53469 1.3154 0.53476 1.9996l1.7398 1.7398c0.46815-1.5499 0.30522-3.2683-0.54414-4.7395-1.0165-1.7607-2.8306-2.847-4.7793-2.9844-0.64957-0.045787-1.3141 0.014051-1.9688 0.18945-0.93159 0.24962-1.7624 0.7129-2.4473 1.3271v-1.5322h-2v6c0 1.4307-0.76101 2.7495-2 3.4648-1.239 0.71533-2.761 0.71533-4 0-1.239-0.71533-2-2.0342-2-3.4648v-10h-2z"/>
 <path d="m7.0736 6.0012c-0.16388-0.0019117-0.32726 0.0030063-0.48965 0.014453-1.9487 0.13736-3.7627 1.2237-4.7793 2.9844-0.23361 0.40462-0.41163 0.82871-0.54258 1.2621l1.7383 1.7383c-6.24e-5 -0.68447 0.1732-1.3741 0.53477-2.0004 0.90763-1.5721 2.7466-2.3331 4.5-1.8633 1.7534 0.46982 2.9648 2.048 2.9648 3.8633 0 2.7108 1.8288 5.0933 4.4473 5.7949s5.3926-0.4473 6.748-2.7949c0.23361-0.40462 0.41163-0.82871 0.54258-1.2621l-1.7383-1.7383c6.3e-5 0.68447-0.1732 1.3741-0.53476 2.0004-0.90763 1.5721-2.7466 2.3331-4.5 1.8633-1.7534-0.46982-2.9648-2.048-2.9648-3.8633 0-2.7108-1.8288-5.0933-4.4473-5.7949-0.49096-0.13155-0.98747-0.19817-1.4791-0.20391z" fill="#f00"/>
</svg>
