<?xml version="1.0" encoding="UTF-8" standalone="no"?>
<!-- Created with Inkscape (http://www.inkscape.org/) -->

<svg
   xmlns:dc="http://purl.org/dc/elements/1.1/"
   xmlns:cc="http://creativecommons.org/ns#"
   xmlns:rdf="http://www.w3.org/1999/02/22-rdf-syntax-ns#"
   xmlns:svg="http://www.w3.org/2000/svg"
   xmlns="http://www.w3.org/2000/svg"
   xmlns:sodipodi="http://sodipodi.sourceforge.net/DTD/sodipodi-0.dtd"
   xmlns:inkscape="http://www.inkscape.org/namespaces/inkscape"
   width="217.47147"
   height="200.00191"
   id="svg2"
   version="1.1"
   inkscape:version="0.48.2 r9819">
  <defs
     id="defs4" />
  <sodipodi:namedview
     id="base"
     pagecolor="#ffffff"
     bordercolor="#666666"
     borderopacity="1.0"
     inkscape:pageopacity="0.0"
     inkscape:pageshadow="2"
     inkscape:zoom="0.35"
     inkscape:cx="149.45002"
     inkscape:cy="-65.71333"
     inkscape:document-units="px"
     inkscape:current-layer="layer1"
     showgrid="false"
     inkscape:window-width="1280"
     inkscape:window-height="748"
     inkscape:window-x="-8"
     inkscape:window-y="-8"
     inkscape:window-maximized="1"
     showborder="false"
     fit-margin-top="0"
     fit-margin-left="0"
     fit-margin-right="0"
     fit-margin-bottom="0" />
  <metadata
     id="metadata7">
    <rdf:RDF>
      <cc:Work
         rdf:about="">
        <dc:format>image/svg+xml</dc:format>
        <dc:type
           rdf:resource="http://purl.org/dc/dcmitype/StillImage" />
        <dc:title></dc:title>
      </cc:Work>
    </rdf:RDF>
  </metadata>
  <g
     inkscape:label="Layer 1"
     inkscape:groupmode="layer"
     id="layer1"
     transform="translate(-225.54998,-266.64695)">
    <g
       id="layer1-9"
       inkscape:label="Layer 1"
       transform="translate(-112.67907,-268.57143)">
      <g
         transform="matrix(10,0,0,10,325.72905,515.22028)"
         id="g2997">
        <path
           sodipodi:nodetypes="cccccsccccscccccccscccccscscccc"
           inkscape:connector-curvature="0"
           d="m 1.25,2.0044643 0,9.9419647 0.017857,5.982142 1.8928572,0.01786 0.035714,-1.316415 C 3.5009686,16.902644 3.63822,16.9864 4,17.19528 c 1.855,1.071 4.145,1.071 6,0 0.36178,-0.20887 0.69546,-0.45335 1,-0.72598 L 11,22 13,22 13,12 C 13,10.1847 14.2114,8.6065 15.9648,8.1367 16.30916,8.044428 16.6567,8.00126 17,8.00076 l 0,-7.813e-4 7.81e-4,7.813e-4 c 1.4042,-0.00176 2.7348,0.73614 3.4641,1.9992 0.36143,0.62601 0.53469,1.3154 0.53476,1.9996 l 1.7398,1.7398 c 0.46815,-1.5499 0.30522,-3.2683 -0.54414,-4.7395 -1.0165,-1.7607 -2.8306,-2.847 -4.7793,-2.9844 -0.64957,-0.045787 -1.3141,0.014051 -1.9688,0.18945 -0.93159,0.24962 -1.7624,0.7129 -2.4473,1.3271 l 0,-1.5322 -2,0 0,6 c 0,1.4307 -0.76101,2.7495 -2,3.4648 -1.239,0.71533 -2.761,0.71533 -4,0 -1.239,-0.71533 -1.9511808,-1.833675 -2,-3.4648 0,0 -0.037411,-2.3327692 0.2678571,-4.0357143 0.0017,-1.6761594 0,-5.9642857 0,-5.9642857 z"
           id="path2987" />
        <path
           style="fill:#ff0000"
           inkscape:connector-curvature="0"
           d="M 7.0736,6.0012 C 6.90972,5.99929 6.74634,6.00421 6.58395,6.015653 c -1.9487,0.13736 -3.7627,1.2237 -4.7793,2.9844 -0.23361,0.40462 -0.41163,0.82871 -0.54258,1.2621 l 1.7383,1.7383 c -6.24e-5,-0.68447 0.1732,-1.3741 0.53477,-2.0004 0.90763,-1.5721 2.7466,-2.3331 4.5,-1.8633 1.7534,0.46982 2.9648,2.048 2.9648,3.8633 0,2.7108 1.8288,5.0933 4.4473,5.7949 2.6185,0.7016 5.3926,-0.4473 6.748,-2.7949 0.23361,-0.40462 0.41163,-0.82871 0.54258,-1.2621 l -1.7383,-1.7383 c 6.3e-5,0.68447 -0.1732,1.3741 -0.53476,2.0004 -0.90763,1.5721 -2.7466,2.3331 -4.5,1.8633 -1.7534,-0.46982 -2.9648,-2.048 -2.9648,-3.8633 0,-2.7108 -1.8288,-5.0933 -4.4473,-5.7949 C 8.0617,6.073603 7.56519,6.006983 7.07356,6.001243 z"
           id="path2989" />
      </g>
    </g>
  </g>
</svg>
